# xmcd CD database file
#
# Track frame offsets:
#	150
#	7263
#	28325
#	43738
#	57234
#	80598
#	93587
#	108772
#	128365
#	151521
#	162039
#	177367
#	193008
#
# Disc length: 2780 seconds
#
# Revision: 5
# Processed by: cddbd v1.5.2PL0 Copyright (c) Steve Scherf et al.
# Submitted via: CDex 1.70beta2
#
DISCID=9d0ada0d
DTITLE=Everlast - Eat At Whitey's
DYEAR=2000
DGENRE=Blues
TTITLE0=Whitey
TTITLE1=Black Jesus
TTITLE2=I Can't Move
TTITLE3=Black Coffee
TTITLE4=Babylon Feeling (feat. Carlos Santana)
TTITLE5=Deadly Assassins (feat. B Real)
TTITLE6=Children's Story (feat. Rahzel)
TTITLE7=Love for Real (feat. N'Dea Davenport)
TTITLE8=One And The Same
TTITLE9=We're All Gonna Die (feat. Cee-Lo)
TTITLE10=Mercy On My Soul (feat. Warren Haynes)
TTITLE11=One, Two (feat. Kurupt)
TTITLE12=Graves To Dig
EXTD=YEAR: 2000
EXTT0=
EXTT1=
EXTT2=
EXTT3=
EXTT4=
EXTT5=
EXTT6=
EXTT7=
EXTT8=
EXTT9=
EXTT10=
EXTT11=
EXTT12=
PLAYORDER=
